<?xml version="1.0" encoding="utf-8"?>
<!-- Generator: Adobe Illustrator 22.0.1, SVG Export Plug-In . SVG Version: 6.00 Build 0)  -->
<svg version="1.1" id="Ebene_1" xmlns="http://www.w3.org/2000/svg" xmlns:xlink="http://www.w3.org/1999/xlink" x="0px" y="0px"
	 viewBox="0 0 1920 1080" style="enable-background:new 0 0 1920 1080;" xml:space="preserve">
<style type="text/css">
	.st0{fill:#D8D8D8;}
	.st1{fill:#F26519;}
	.st2{fill:#F99417;}
	.st3{fill:#FFC306;}
	.st4{fill:#B8B501;}
	.st5{fill:#5088C9;}
</style>
<g>
	<path class="st0" d="M412.1,609.5c-9.2,7.3-19.2,13.5-30.1,18.7c-10.9,5.2-22.8,9.2-35.8,11.9c-13,2.7-27.5,4.1-43.6,4.1
		c-24.3,0-46.9-4.4-67.8-13.2c-20.9-8.8-38.9-20.9-54.1-36.2c-15.2-15.3-27-33.4-35.6-54.2c-8.6-20.8-12.8-43.1-12.9-66.8l0-0.9
		c0-23.7,4.2-45.9,12.7-66.6c8.5-20.7,20.3-38.9,35.5-54.5c15.1-15.7,33.3-28,54.5-37c21.2-9,44.5-13.6,70.1-13.6
		c15.5,0,29.6,1.2,42.4,3.7c12.8,2.5,24.4,6,34.8,10.4c10.4,4.4,20.1,9.8,28.9,16.1c8.8,6.3,17.1,13.2,24.7,20.8l-46.4,53.6
		c-13-11.7-26.2-20.8-39.6-27.4c-13.4-6.6-28.5-9.9-45.3-9.9c-13.9,0-26.8,2.7-38.6,8.1c-11.8,5.4-22,12.8-30.5,22.3
		c-8.5,9.5-15.1,20.5-19.9,33c-4.7,12.5-7.1,25.8-7.1,40l0,0.9c0,14.2,2.4,27.6,7.2,40.3c4.8,12.6,11.3,23.7,19.7,33.1
		c8.4,9.5,18.5,17,30.4,22.5c11.9,5.5,24.9,8.3,39.1,8.3c19,0,35-3.5,48.1-10.5c13.1-7,26.1-16.4,39.1-28.5l46.5,46.9
		C430.1,594,421.2,602.2,412.1,609.5z"/>
	<path class="st0" d="M778.8,538.7c-8.8,20.7-21,38.9-36.7,54.5c-15.6,15.7-34.3,28-55.9,37c-21.6,9-45.2,13.6-70.8,13.6
		c-25.6,0-49.1-4.4-70.6-13.4c-21.5-9-40.1-21.1-55.7-36.4c-15.7-15.3-27.8-33.3-36.5-54c-8.7-20.7-13.1-42.9-13.1-66.6l0-0.9
		c0-23.7,4.4-45.9,13.2-66.6c8.8-20.7,21-38.9,36.7-54.5c15.6-15.7,34.2-28,55.9-37c21.6-9,45.2-13.6,70.8-13.6
		c25.6,0,49.1,4.4,70.6,13.4c21.5,9,40.1,21.1,55.7,36.4c15.7,15.3,27.8,33.3,36.5,54c8.7,20.7,13.1,42.9,13.1,66.6l0,0.9
		C792,495.8,787.6,518,778.8,538.7z M715.7,472.2c0-14.2-2.5-27.6-7.4-40.3c-4.9-12.6-11.9-23.7-20.9-33.1c-9-9.5-19.7-17-32-22.5
		c-12.3-5.5-25.8-8.3-40.3-8.2c-14.9,0-28.4,2.7-40.5,8.1c-12.2,5.4-22.6,12.8-31.3,22.3c-8.7,9.5-15.5,20.5-20.3,33
		c-4.9,12.5-7.3,25.8-7.3,40l0,0.9c0,14.2,2.5,27.6,7.4,40.3c4.9,12.6,11.9,23.7,20.9,33.1c9,9.5,19.6,17,31.8,22.5
		c12.2,5.5,25.7,8.3,40.5,8.2c14.5,0,28-2.7,40.3-8.1c12.3-5.4,22.8-12.8,31.5-22.3c8.7-9.5,15.5-20.5,20.3-33
		c4.9-12.5,7.3-25.8,7.3-40L715.7,472.2z"/>
	<path class="st0" d="M1048.5,637.7L887.6,427l0.2,210.9l-72,0.1l-0.4-331.7l67.3-0.1l155.6,204.1l-0.2-204.2l72-0.1l0.4,331.7
		L1048.5,637.7z"/>
	<path class="st0" d="M1403.9,637.3l-30.4-74.4l-140.3,0.2l-30.2,74.4l-74.4,0.1l141.8-334.2l67.3-0.1l142.5,333.9L1403.9,637.3z
		 M1303.1,391l-44,107.6l88.1-0.1L1303.1,391z"/>
	<path class="st0" d="M1726.1,637l-160.9-210.7l0.2,210.9l-72,0.1l-0.4-331.7l67.3-0.1L1716,509.5l-0.2-204.2l72-0.1l0.4,331.7
		L1726.1,637z"/>
</g>
<circle class="st1" cx="704.5" cy="732.5" r="47.5"/>
<circle class="st2" cx="832.5" cy="732.5" r="47.5"/>
<circle class="st3" cx="962.5" cy="732.5" r="47.5"/>
<circle class="st4" cx="1091.5" cy="732.5" r="47.5"/>
<circle class="st5" cx="1221.5" cy="732.5" r="47.5"/>
</svg>
